<svg width="31" height="31" viewBox="0 0 31 31" fill="none" xmlns="http://www.w3.org/2000/svg">
<path d="M15.5 28.4166C8.36636 28.4166 2.58337 22.6337 2.58337 15.5C2.58337 8.3663 8.36636 2.58331 15.5 2.58331C22.6337 2.58331 28.4167 8.3663 28.4167 15.5C28.4089 22.6304 22.6305 28.4088 15.5 28.4166ZM5.16671 15.7221C5.22782 21.4071 9.8698 25.9748 15.555 25.9444C21.2402 25.9137 25.8328 21.2963 25.8328 15.6111C25.8328 9.9258 21.2402 5.30844 15.555 5.27773C9.8698 5.24732 5.22782 9.81505 5.16671 15.5V15.7221ZM16.7917 21.9583H14.2084V16.7916H9.04171V14.2083H14.2084V9.04165H16.7917V14.2083H21.9584V16.7916H16.7917V21.9583Z" fill="#5F4F87"/>
</svg>
