<svg width="84" height="65" viewBox="0 0 84 65" fill="none" xmlns="http://www.w3.org/2000/svg">
<path d="M24.399 43.82C25.323 43.82 26.091 44.036 26.703 44.468C27.315 44.888 27.789 45.47 28.125 46.214L26.757 46.862C26.565 46.286 26.271 45.848 25.875 45.548C25.491 45.236 24.987 45.08 24.363 45.08C23.463 45.08 22.755 45.386 22.239 45.998C21.735 46.598 21.483 47.432 21.483 48.5C21.483 49.568 21.735 50.408 22.239 51.02C22.755 51.62 23.463 51.92 24.363 51.92C25.071 51.92 25.635 51.758 26.055 51.434C26.475 51.11 26.751 50.654 26.883 50.066L28.215 50.534C27.915 51.362 27.441 52.01 26.793 52.478C26.157 52.946 25.359 53.18 24.399 53.18C23.559 53.18 22.809 52.994 22.149 52.622C21.489 52.25 20.973 51.716 20.601 51.02C20.229 50.312 20.043 49.472 20.043 48.5C20.043 47.528 20.229 46.694 20.601 45.998C20.973 45.29 21.489 44.75 22.149 44.378C22.809 44.006 23.559 43.82 24.399 43.82ZM32.2213 39.86V53H30.7813V39.86H32.2213ZM39.3229 43.82C40.1749 43.82 40.9249 44.006 41.5729 44.378C42.2329 44.75 42.7489 45.29 43.1209 45.998C43.4929 46.694 43.6789 47.528 43.6789 48.5C43.6789 49.472 43.4929 50.312 43.1209 51.02C42.7489 51.716 42.2329 52.25 41.5729 52.622C40.9249 52.994 40.1749 53.18 39.3229 53.18C38.4829 53.18 37.7329 52.994 37.0729 52.622C36.4129 52.25 35.8969 51.716 35.5249 51.02C35.1529 50.312 34.9669 49.472 34.9669 48.5C34.9669 47.528 35.1529 46.694 35.5249 45.998C35.8969 45.29 36.4129 44.75 37.0729 44.378C37.7329 44.006 38.4829 43.82 39.3229 43.82ZM39.3229 45.062C38.4109 45.062 37.6969 45.368 37.1809 45.98C36.6649 46.592 36.4069 47.432 36.4069 48.5C36.4069 49.568 36.6649 50.408 37.1809 51.02C37.6969 51.632 38.4109 51.938 39.3229 51.938C40.2349 51.938 40.9489 51.632 41.4649 51.02C41.9809 50.408 42.2389 49.568 42.2389 48.5C42.2389 47.432 41.9809 46.592 41.4649 45.98C40.9489 45.368 40.2349 45.062 39.3229 45.062ZM50.1158 43.82C51.0398 43.82 51.8078 44.036 52.4198 44.468C53.0318 44.888 53.5058 45.47 53.8418 46.214L52.4738 46.862C52.2818 46.286 51.9878 45.848 51.5918 45.548C51.2078 45.236 50.7038 45.08 50.0798 45.08C49.1798 45.08 48.4718 45.386 47.9558 45.998C47.4518 46.598 47.1998 47.432 47.1998 48.5C47.1998 49.568 47.4518 50.408 47.9558 51.02C48.4718 51.62 49.1798 51.92 50.0798 51.92C50.7878 51.92 51.3518 51.758 51.7718 51.434C52.1918 51.11 52.4678 50.654 52.5998 50.066L53.9318 50.534C53.6318 51.362 53.1578 52.01 52.5098 52.478C51.8738 52.946 51.0758 53.18 50.1158 53.18C49.2758 53.18 48.5258 52.994 47.8658 52.622C47.2058 52.25 46.6898 51.716 46.3178 51.02C45.9458 50.312 45.7598 49.472 45.7598 48.5C45.7598 47.528 45.9458 46.694 46.3178 45.998C46.6898 45.29 47.2058 44.75 47.8658 44.378C48.5258 44.006 49.2758 43.82 50.1158 43.82ZM64.3641 44L60.8541 47.51L64.5801 53H62.8341L59.8101 48.554L57.9021 50.462V53H56.4621V39.86H57.9021V48.662L62.5461 44H64.3641Z" fill="#5F4F87"/>
<path d="M41.5 3.08331C33.0039 3.08331 26.0834 10.0039 26.0834 18.5C26.0834 26.9961 33.0039 33.9166 41.5 33.9166C49.9962 33.9166 56.9167 26.9961 56.9167 18.5C56.9167 10.0039 49.9962 3.08331 41.5 3.08331ZM41.5 6.16665C48.3298 6.16665 53.8334 11.6702 53.8334 18.5C53.8334 25.3298 48.3298 30.8333 41.5 30.8333C34.6703 30.8333 29.1667 25.3298 29.1667 18.5C29.1667 11.6702 34.6703 6.16665 41.5 6.16665ZM39.9584 9.24998V19.1383L46.5767 25.7567L48.7567 23.5766L43.0417 17.8616V9.24998H39.9584Z" fill="#5F4F87"/>
</svg>
