<svg width="13" height="13" viewBox="0 0 13 13" fill="none" xmlns="http://www.w3.org/2000/svg">
<path d="M2.39441 11.147C2.24246 11.1467 2.09761 11.0826 1.9952 10.9704C1.8909 10.8591 1.83907 10.7085 1.85274 10.5566L1.98545 9.09731L8.11603 2.9689L10.0319 4.88423L3.90295 11.0121L2.4437 11.1448C2.42691 11.1464 2.41012 11.147 2.39441 11.147ZM10.4143 4.50127L8.49899 2.58594L9.64786 1.43706C9.74946 1.33535 9.88733 1.2782 10.0311 1.2782C10.1749 1.2782 10.3127 1.33535 10.4143 1.43706L11.5632 2.58594C11.6649 2.68754 11.7221 2.8254 11.7221 2.96917C11.7221 3.11293 11.6649 3.2508 11.5632 3.3524L10.4149 4.50073L10.4143 4.50127Z" fill="#5F4F87"/>
</svg>
