<svg width="34" height="34" viewBox="0 0 34 34" fill="none" xmlns="http://www.w3.org/2000/svg">
<g clip-path="url(#clip0)">
<path fill-rule="evenodd" clip-rule="evenodd" d="M9.91667 15.5834V18.9834H15.5408C15.3142 20.4411 13.8408 23.2617 9.91667 23.2617C6.53083 23.2617 3.76833 20.4581 3.76833 17C3.76833 13.5434 6.53083 10.7384 9.91667 10.7384C11.8433 10.7384 13.1325 11.56 13.8692 12.2684L16.5608 9.67587C14.8325 8.06087 12.5942 7.08337 9.91667 7.08337C4.43417 7.08337 0 11.5175 0 17C0 22.4825 4.43417 26.9167 9.91667 26.9167C15.64 26.9167 19.4381 22.8934 19.4381 17.2267C19.4381 16.575 19.3658 16.0792 19.2808 15.5834H9.91667V15.5834ZM9.91667 15.5834L34 18.4167H29.75V22.6667H26.9167V18.4167H22.6667V15.5834H26.9167V11.3334H29.75V15.5834H34V18.4167L9.91667 15.5834Z" fill="#FA005E"/>
</g>
<defs>
<clipPath id="clip0">
<rect width="34" height="34" fill="white"/>
</clipPath>
</defs>
</svg>
