<svg width="535" height="581" viewBox="0 0 535 581" fill="none" xmlns="http://www.w3.org/2000/svg">
<path d="M288.771 70.7298C368.715 80.0668 442.452 131.613 463.714 210.167C484.977 288.721 453.893 394 380.924 437.629C307.954 481.259 193.227 462.957 128.966 401.044C64.8342 338.849 50.8864 232.916 87.0647 163.718C122.96 94.393 208.828 61.3928 288.771 70.7298Z" fill="#5F4F87"/>
<path d="M312.793 378.661V579.77" stroke="#FFB000" stroke-width="0.537557" stroke-miterlimit="10"/>
<path d="M401.648 378.661V579.77" stroke="#FFB000" stroke-width="0.537557" stroke-miterlimit="10"/>
<path d="M311.934 547.44H400.56" stroke="#FFB000" stroke-width="0.537557" stroke-miterlimit="10"/>
<path d="M415.767 351.707H297.816C293.854 351.707 290.642 354.919 290.642 358.881V371.487C290.642 375.449 293.854 378.661 297.816 378.661H415.767C419.729 378.661 422.94 375.449 422.94 371.487V358.881C422.94 354.919 419.729 351.707 415.767 351.707Z" fill="white" stroke="#6562CF" stroke-width="0.537557" stroke-miterlimit="10"/>
<path d="M399.48 157.538C406.792 155.486 416.902 132.782 405.824 120.487C394.747 108.191 371.274 107.82 351.347 110.804C332.927 113.564 308.733 124.248 317.954 147.294C331.066 180.06 399.48 157.538 399.48 157.538Z" fill="#FFB819"/>
<path d="M388.458 142.077C395.368 140.617 407.241 129.12 396.806 120.37C386.372 111.62 370.302 110.769 353.186 113.693C336.071 116.617 318.334 122.668 326.475 139.256C334.616 155.845 388.458 142.077 388.458 142.077Z" fill="#F49C00"/>
<path d="M429.241 577.771C424.771 580.522 397.433 580.362 392.272 577.771C387.111 575.18 388.32 566.421 387.461 560.573C386.601 554.726 374.392 543.73 373.705 539.942C373.019 536.155 386.256 527.906 388.553 524.546C386.662 530.126 405.6 531.348 407.124 527.733C406.381 540.975 416.112 562.024 424.093 563.925C429.116 565.125 433.711 575.02 429.241 577.771Z" fill="#DBDAFF"/>
<path d="M411.201 513.252L407.116 527.733C405.6 531.348 386.662 530.126 388.545 524.546C390.428 518.966 389.715 509.27 389.715 509.27L411.201 513.252Z" fill="#C36F0B"/>
<path d="M373.71 539.96C374.401 543.743 386.606 554.747 387.47 560.595C388.333 566.443 387.124 575.21 392.281 577.788C397.437 580.366 424.78 580.539 429.25 577.788" stroke="#6562CF" stroke-width="0.62715" stroke-miterlimit="10" stroke-linecap="round"/>
<path d="M408.178 563.908C408.178 563.908 417.247 559.857 426.274 563.044" stroke="white" stroke-width="0.537557" stroke-miterlimit="10" stroke-linecap="round"/>
<path d="M304.665 577.771C309.135 580.522 333.449 580.362 338.61 577.771C343.771 575.18 346.881 566.421 347.74 560.574C348.6 554.726 356.922 541.571 357.609 537.783C358.296 533.996 345.058 525.747 342.761 522.387C344.652 527.967 326.146 531.348 324.622 527.733C325.365 540.975 317.789 562.025 309.813 563.925C304.786 565.126 300.195 575.02 304.665 577.771Z" fill="#DBDAFF"/>
<path d="M315.363 512.389L324.631 527.733C326.147 531.348 344.653 527.967 342.77 522.387C340.887 516.807 340.304 507.975 340.304 507.975L315.363 512.389Z" fill="#C36F0B"/>
<path d="M357.609 537.801C356.922 541.584 348.6 554.748 347.741 560.595C346.881 566.443 343.767 575.21 338.606 577.788C333.445 580.367 309.135 580.539 304.66 577.788" stroke="#6562CF" stroke-width="0.62715" stroke-miterlimit="10" stroke-linecap="round"/>
<path d="M325.727 563.908C325.727 563.908 316.679 559.857 307.632 563.044" stroke="white" stroke-width="0.537557" stroke-miterlimit="10" stroke-linecap="round"/>
<path d="M312.879 293.494C312.879 293.494 222.936 337.546 222.936 364.642C222.936 412.978 303.382 514.937 317.198 513.598C331.014 512.259 344.623 509.335 344.091 503.488C343.56 497.64 314.629 405.952 292.145 378.808C292.145 378.808 300.351 365.89 351.628 366.456C376.34 366.728 397.887 368.408 398.418 369.207C398.949 370.006 371.55 423.477 385.53 506.157C386.753 513.36 416.881 516.383 419.8 512.397C422.72 508.411 469.484 368.015 464.971 356.842C460.457 345.67 413.577 305.656 390.713 293.481C374.245 284.718 312.879 293.494 312.879 293.494Z" fill="#3F4D79"/>
<path d="M287.195 153.802C275.789 160.064 258.743 216.222 258.743 216.222C258.743 216.222 217.671 165.808 215.771 165.333C213.871 164.858 202.836 179.585 202.836 179.585C202.836 179.585 224.279 275.325 257.728 277.454C271.769 278.348 283.641 270.203 293.389 258.3C297.707 272.703 301.741 284.58 301.741 284.58C303.469 290.626 271.233 307.275 278.588 311.849C278.588 311.849 303.685 303.686 347.97 315.105C400.918 328.77 426.516 318.405 421.51 314.432C416.505 310.458 408.645 297.541 405.928 288.899L410.813 242.394C410.813 242.394 427.906 285.781 453.746 285.781C484.569 285.781 512.741 191.549 512.741 191.549C501.784 191.238 492.706 183.412 492.706 183.412C481.123 191.549 457.015 220.053 457.015 220.053C457.015 220.053 441.99 174.632 434.791 164.301C427.591 153.971 404.127 145.83 388.458 142.077L326.475 139.256C322.316 138.462 296.9 147.173 287.195 153.802Z" fill="#FFB000"/>
<path d="M457.015 218.153C449.176 227.166 442.093 243.202 442.093 243.202" stroke="#F49C00" stroke-width="0.537557" stroke-miterlimit="10"/>
<path d="M407.776 148.922C377.683 146.378 347.469 165.307 347.469 165.307C347.469 165.307 320.908 159.356 315.596 141.675" stroke="#F49C00" stroke-width="0.537557" stroke-miterlimit="10"/>
<path d="M302.605 284.58C302.605 284.58 285.995 236.866 283.675 216.744" stroke="#F49C00" stroke-width="0.537557" stroke-miterlimit="10" stroke-linecap="round"/>
<path d="M511.873 157.171C511.471 159.74 508.677 163.727 511.441 163.696C512.866 163.696 523.171 162.016 524.432 165.808C524.965 167.61 524.869 169.54 524.16 171.28C526.418 174.653 524.691 177.409 524.691 177.409C526.056 179.508 526.418 182.224 525.468 183.42C525.468 183.42 527.857 188.927 525.576 190.205C518.511 194.179 507.243 195.004 501.784 193.591C497.953 192.602 493.358 190.236 492.183 182.082C491.699 178.743 495.025 169.989 497.564 166.378C498.601 164.893 502.397 158.967 503.68 157.343C505.509 154.966 506.754 152.192 507.316 149.246C507.316 149.246 512.996 149.993 511.873 157.171Z" fill="#C36F0B"/>
<path d="M521.111 165.303C521.361 167.031 510.836 167.393 509.018 167.791C506.427 168.352 506.763 173.885 510.123 173.345C514.695 173.136 519.236 172.481 523.68 171.388" stroke="#B65A18" stroke-width="0.358372" stroke-miterlimit="10" stroke-linecap="round"/>
<path d="M524.004 177.465C512.87 179.711 509.899 179.503 509.899 179.503C508.275 179.823 506.185 174.083 510.123 173.345" stroke="#B65A18" stroke-width="0.358372" stroke-miterlimit="10" stroke-linecap="round"/>
<path d="M524.28 183.226C513.803 185.528 510.175 185.265 510.175 185.265C508.625 185.45 506.686 179.991 509.851 179.616" stroke="#B65A18" stroke-width="0.358372" stroke-miterlimit="10" stroke-linecap="round"/>
<path d="M513.108 185.174C513.108 185.174 509.363 184.824 509.42 187.156C509.523 191.302 511.531 191.747 521.011 190.006" stroke="#B65A18" stroke-width="0.358372" stroke-miterlimit="10" stroke-linecap="round"/>
<path d="M200.781 144.426C200.867 147.017 203.134 151.276 200.418 150.904C199.01 150.714 189.055 147.825 187.353 151.405C186.607 153.117 186.467 155.032 186.956 156.834C184.322 159.883 185.686 162.811 185.686 162.811C184.088 164.716 183.402 167.35 184.192 168.646C184.192 168.646 181.169 173.781 183.259 175.319C189.737 180.095 200.75 182.276 206.304 181.546C210.191 181.037 215.015 179.262 217.166 171.367C218.03 168.136 215.832 159.123 213.772 155.236C212.929 153.642 209.906 147.341 208.835 145.584C207.328 143.016 206.441 140.132 206.244 137.162C206.244 137.162 200.547 137.214 200.781 144.426Z" fill="#C36F0B"/>
<path d="M187.781 175.69C196.915 178.557 198.949 178.359 199.558 174.286C199.748 172.99 198.647 172.399 197.649 172.127C198.11 172.217 198.576 172.282 199.044 172.321C200.435 172.662 202.789 167.925 200.703 166.616C201.567 166.184 202.482 163.087 202.478 160.336C204.089 159.222 204.205 155.918 202.331 155.257C200.565 154.64 190.238 152.994 190.67 151.327L187.781 175.69Z" fill="#C36F0B"/>
<path d="M187.945 157.011C192.033 158.589 196.257 159.786 200.565 160.587C203.808 161.524 204.815 156.113 202.331 155.245C200.565 154.627 192.303 151.936 190.671 151.319" stroke="#B65A18" stroke-width="0.268779" stroke-miterlimit="10" stroke-linecap="round"/>
<path d="M186.891 162.962C197.593 166.525 200.038 166.685 200.038 166.685C201.597 167.195 204.357 161.796 200.565 160.587" stroke="#B65A18" stroke-width="0.268779" stroke-miterlimit="10" stroke-linecap="round"/>
<path d="M185.41 168.585C195.456 172.131 199.066 172.308 199.066 172.308C200.573 172.684 202.677 167.022 198.98 166.534" stroke="#B65A18" stroke-width="0.268779" stroke-miterlimit="10" stroke-linecap="round"/>
<path d="M196.16 171.881C196.16 171.881 199.896 171.993 199.559 174.286C198.95 178.359 196.92 178.553 187.786 175.69" stroke="#B65A18" stroke-width="0.268779" stroke-miterlimit="10" stroke-linecap="round"/>
<path d="M375.312 101.691C375.312 101.691 368.734 131.12 388.458 142.077C388.458 142.077 370.319 145.208 347.136 164.301C347.136 164.301 329.291 149.276 326.475 139.252C326.475 139.252 344.614 132.994 342.752 101.678L375.312 101.691Z" fill="#C36F0B"/>
<path d="M375.312 101.693H342.752C344.631 133 326.475 139.267 326.475 139.267C326.475 139.267 362.679 139.267 372.919 106.988L375.312 101.693Z" fill="#B65A18"/>
<path d="M376.555 101.402C376.555 101.402 366.886 120.254 343.78 120.262C323.171 120.262 320.026 59.7687 350.72 58.9352C379.967 58.1405 376.201 92.7471 376.201 92.7471C376.201 92.7471 381.466 89.6851 383.379 92.8724C385.292 96.0597 376.555 101.402 376.555 101.402Z" fill="#C36F0B"/>
<path d="M363.016 61.194C363.016 61.194 362.684 71.6671 348.186 71.5073C335.596 71.3691 328.695 78.4951 328.021 83.6259" stroke="#3F4D79" stroke-width="0.268779" stroke-miterlimit="10" stroke-linecap="round"/>
<path d="M402.771 81.8767C402.771 93.287 388.998 103.151 373.749 109.845C372.846 110.243 371.386 110.333 369.538 110.186C372.324 107.645 374.692 104.68 376.556 101.402C376.556 101.402 385.241 95.9862 383.362 92.8724C381.484 89.7585 376.184 92.7428 376.184 92.7428C376.184 92.7428 378.823 68.6223 362.675 61.1291C362.55 61.3624 358.356 68.7562 345.961 69.1492C334.171 69.5163 330.954 74.0121 329.606 78.711C329.563 78.8751 329.52 79.0349 329.481 79.199C327.961 85.4492 327.598 91.9246 328.41 98.3054L328.341 98.2795C327.196 96.8889 311.558 77.0699 315.639 66.4413C320.074 54.8885 348.423 38.5936 371.118 42.6274C383.794 44.8861 402.767 75.8779 402.771 81.8767Z" fill="#3F4D79"/>
<path d="M299.979 245.417H126.039C123.652 245.414 121.327 244.662 119.39 243.267C117.453 241.873 116.002 239.906 115.242 237.643L78.3769 127.872C77.9719 126.666 77.8598 125.38 78.0498 124.122C78.2397 122.864 78.7264 121.669 79.4694 120.636C80.2125 119.603 81.1907 118.762 82.3231 118.182C83.4556 117.601 84.7099 117.299 85.9823 117.299H259.922C262.309 117.303 264.634 118.055 266.571 119.45C268.508 120.844 269.959 122.811 270.719 125.073L307.563 234.819C307.973 236.025 308.089 237.311 307.902 238.571C307.716 239.831 307.232 241.028 306.491 242.064C305.75 243.1 304.773 243.944 303.64 244.527C302.508 245.11 301.253 245.415 299.979 245.417Z" fill="#C7BFFF"/>
<path d="M296.011 249.697H122.066C119.68 249.694 117.354 248.942 115.417 247.547C113.48 246.153 112.029 244.185 111.269 241.923L74.417 132.173C74.0122 130.967 73.9 129.682 74.0897 128.425C74.2795 127.167 74.7657 125.972 75.5083 124.939C76.2508 123.906 77.2284 123.065 78.3604 122.485C79.4923 121.904 80.746 121.601 82.0181 121.601H255.954C258.341 121.604 260.666 122.356 262.603 123.751C264.54 125.145 265.991 127.112 266.751 129.375L303.599 239.124C304.003 240.329 304.116 241.613 303.927 242.87C303.738 244.127 303.253 245.321 302.511 246.353C301.77 247.386 300.794 248.227 299.664 248.809C298.534 249.39 297.282 249.694 296.011 249.697Z" fill="white"/>
<path d="M299.979 245.063H126.039C123.652 245.06 121.326 244.309 119.389 242.914C117.452 241.519 116.002 239.552 115.242 237.289L78.3769 127.539C77.9719 126.333 77.8598 125.048 78.0498 123.79C78.2397 122.531 78.7264 121.337 79.4694 120.304C80.2125 119.271 81.1907 118.429 82.3231 117.849C83.4556 117.269 84.7099 116.967 85.9823 116.967H259.922C262.309 116.971 264.634 117.723 266.571 119.117C268.508 120.512 269.959 122.479 270.719 124.741L307.58 234.49C307.985 235.696 308.097 236.981 307.908 238.239C307.718 239.497 307.232 240.692 306.489 241.724C305.747 242.757 304.769 243.599 303.637 244.179C302.505 244.76 301.251 245.063 299.979 245.063V245.063Z" stroke="#6562CF" stroke-width="0.537557" stroke-miterlimit="10"/>
<path d="M224.746 210.664L237.978 243.594H209.379C209.379 243.594 214.938 217.833 224.746 210.664Z" fill="#E2E2FF"/>
<path d="M243.766 284.895C187.453 284.895 211.133 224.635 222.331 212.119H178.992C167.798 224.644 137.501 288.204 193.81 288.204H243.766V284.895Z" fill="white" stroke="#6562CF" stroke-width="0.537557" stroke-miterlimit="10"/>
<path d="M195.963 183.397C198.389 179.553 196.431 173.958 191.588 170.902C186.745 167.845 180.852 168.483 178.425 172.328C175.999 176.172 177.957 181.767 182.8 184.823C187.643 187.88 193.536 187.242 195.963 183.397Z" fill="#E2E2FF"/>
<path d="M198.729 181.064C201.155 177.219 199.197 171.625 194.354 168.568C189.511 165.511 183.618 166.15 181.191 169.994C178.765 173.839 180.723 179.433 185.566 182.49C190.409 185.547 196.302 184.908 198.729 181.064Z" stroke="#6562CF" stroke-width="0.537557" stroke-miterlimit="10"/>
<path d="M114.474 288.203H372.38C376.172 288.203 379.247 291.071 379.247 294.613C379.247 298.15 376.172 301.017 372.38 301.017H114.474V288.203Z" fill="white"/>
<path d="M114.474 288.203H372.38C376.172 288.203 379.247 291.071 379.247 294.613C379.247 298.15 376.172 301.017 372.38 301.017H114.474" stroke="#6562CF" stroke-width="0.537557" stroke-miterlimit="10"/>
</svg>
