<svg width="121" height="76" viewBox="0 0 121 76" fill="none" xmlns="http://www.w3.org/2000/svg">
<path d="M4.57261 35.4431V44H3.20885V25.0812H8.03549C10.2193 25.0812 11.8504 25.5046 12.929 26.3513C14.0075 27.1892 14.5468 28.4237 14.5468 30.0549C14.5468 30.7769 14.422 31.4365 14.1724 32.0337C13.9228 32.6309 13.5618 33.1568 13.0894 33.6114C12.6259 34.057 12.0644 34.4269 11.4048 34.7211C10.7452 35.0063 10.0009 35.1935 9.17195 35.2826C9.38588 35.4163 9.57752 35.5946 9.74687 35.8174L16.2582 44H15.0682C14.9256 44 14.8008 43.9733 14.6938 43.9198C14.5958 43.8663 14.4977 43.7772 14.3997 43.6524L8.343 35.9779C8.19147 35.7818 8.02657 35.6436 7.8483 35.5634C7.67895 35.4832 7.41154 35.4431 7.04609 35.4431H4.57261ZM4.57261 34.4269H7.86167C8.69954 34.4269 9.44827 34.3289 10.1079 34.1328C10.7764 33.9278 11.3379 33.6381 11.7925 33.2637C12.256 32.8894 12.6081 32.4392 12.8488 31.9133C13.0894 31.3875 13.2098 30.7947 13.2098 30.1351C13.2098 28.7892 12.7685 27.7909 11.8861 27.1402C11.0037 26.4895 9.72013 26.1642 8.03549 26.1642H4.57261V34.4269ZM21.549 44H20.1719V25.0812H21.549V44ZM35.797 43.1042C36.4477 43.1042 37.0404 43.073 37.5753 43.0106C38.1101 42.9393 38.6048 42.8368 39.0593 42.7031C39.5228 42.5694 39.9596 42.4089 40.3696 42.2218C40.7886 42.0257 41.2075 41.8073 41.6264 41.5666V36.4726H37.9897C37.8917 36.4726 37.807 36.4414 37.7357 36.379C37.6733 36.3166 37.6421 36.2453 37.6421 36.1651V35.4163H42.8699V42.1415C42.3974 42.4713 41.9072 42.7655 41.3991 43.024C40.8911 43.2825 40.3473 43.5008 39.768 43.6791C39.1886 43.8485 38.5647 43.9777 37.8961 44.0669C37.2276 44.1649 36.4967 44.2139 35.7034 44.2139C34.3397 44.2139 33.0918 43.9866 31.9598 43.532C30.8367 43.0685 29.8696 42.4179 29.0584 41.58C28.2562 40.7332 27.6323 39.7126 27.1866 38.5182C26.7409 37.3238 26.5181 35.9957 26.5181 34.5339C26.5181 33.0721 26.7409 31.7484 27.1866 30.563C27.6323 29.3686 28.2651 28.3524 29.0852 27.5146C29.9052 26.6678 30.8991 26.0171 32.0667 25.5625C33.2433 25.099 34.558 24.8673 36.0109 24.8673C36.7329 24.8673 37.397 24.9163 38.0031 25.0143C38.6181 25.1124 39.1886 25.2594 39.7145 25.4555C40.2404 25.6427 40.7306 25.8789 41.1852 26.1642C41.6398 26.4405 42.0766 26.7614 42.4955 27.1268L42.1345 27.7151C42.0543 27.8488 41.9429 27.9157 41.8002 27.9157C41.72 27.9157 41.6443 27.8978 41.5729 27.8622C41.4392 27.8087 41.2431 27.6839 40.9847 27.4878C40.7351 27.2917 40.3919 27.0867 39.9552 26.8728C39.5273 26.6589 38.988 26.4672 38.3374 26.2979C37.6867 26.1285 36.8978 26.0438 35.9708 26.0438C34.7408 26.0438 33.631 26.2399 32.6417 26.6321C31.6523 27.0243 30.8055 27.5859 30.1013 28.3168C29.4061 29.0477 28.8668 29.939 28.4835 30.9908C28.1092 32.0426 27.922 33.2236 27.922 34.5339C27.922 35.8709 28.1136 37.0698 28.4969 38.1305C28.8802 39.1912 29.415 40.0914 30.1013 40.8313C30.7966 41.5622 31.6255 42.1237 32.5882 42.5159C33.5597 42.9081 34.6294 43.1042 35.797 43.1042ZM62.2713 44H60.8941V34.935H49.0481V44H47.671V25.0812H49.0481V33.9055H60.8941V25.0812H62.2713V44ZM80.237 25.0812V26.2444H73.592V44H72.2283V26.2444H65.5432V25.0812H80.237ZM89.4213 36.1918V44H88.0442V36.1918L81.0516 25.0812H82.2415C82.3663 25.0812 82.4644 25.1124 82.5357 25.1748C82.6159 25.2282 82.6916 25.3085 82.763 25.4154L88.1779 34.1061C88.3027 34.3111 88.4096 34.5116 88.4988 34.7077C88.5879 34.8949 88.6681 35.0865 88.7394 35.2826C88.8107 35.0865 88.891 34.8949 88.9801 34.7077C89.0692 34.5116 89.1762 34.3111 89.301 34.1061L94.7025 25.4154C94.756 25.3174 94.8229 25.2372 94.9031 25.1748C94.9833 25.1124 95.0858 25.0812 95.2106 25.0812H96.4139L89.4213 36.1918Z" fill="#5F4F87"/>
<path d="M15.042 64.5195C15.137 64.5195 15.2321 64.5393 15.3272 64.5789C15.4223 64.6106 15.5134 64.67 15.6005 64.7572L17.1931 66.4329C16.4959 67.3441 15.6204 68.0334 14.5666 68.5008C13.5207 68.9604 12.2808 69.1902 10.8467 69.1902C9.53147 69.1902 8.35093 68.9683 7.30508 68.5246C6.26716 68.073 5.38374 67.455 4.65481 66.6706C3.93381 65.8783 3.3792 64.9434 2.99097 63.8658C2.60274 62.7804 2.40862 61.6038 2.40862 60.3361C2.40862 59.0447 2.63047 57.8602 3.07416 56.7826C3.51785 55.6972 4.13585 54.7622 4.92816 53.9778C5.72839 53.1935 6.68312 52.5834 7.79235 52.1476C8.90158 51.7118 10.1257 51.494 11.4647 51.494C12.1144 51.494 12.7245 51.5534 13.2949 51.6722C13.8733 51.7832 14.4121 51.9416 14.9112 52.1476C15.4104 52.3457 15.8699 52.5873 16.2899 52.8726C16.7098 53.1499 17.0822 53.4589 17.407 53.7996L16.0522 55.6179C15.965 55.7288 15.862 55.8318 15.7432 55.9269C15.6243 56.0141 15.4579 56.0577 15.244 56.0577C15.1014 56.0577 14.9667 56.026 14.8399 55.9626C14.7132 55.8992 14.5785 55.8239 14.4359 55.7368C14.2932 55.6417 14.1348 55.5427 13.9605 55.4397C13.7941 55.3287 13.592 55.2297 13.3544 55.1425C13.1246 55.0475 12.8512 54.9682 12.5343 54.9048C12.2253 54.8415 11.8609 54.8098 11.4409 54.8098C10.712 54.8098 10.0465 54.9405 9.44431 55.202C8.84216 55.4555 8.3232 55.8239 7.88743 56.3072C7.45958 56.7826 7.12285 57.361 6.87724 58.0424C6.63954 58.7238 6.5207 59.4883 6.5207 60.3361C6.5207 61.2235 6.63954 62.0118 6.87724 62.7012C7.12285 63.3905 7.45166 63.9728 7.86366 64.4482C8.28358 64.9157 8.77085 65.2722 9.32547 65.5178C9.88008 65.7634 10.4743 65.8862 11.1082 65.8862C11.4726 65.8862 11.8054 65.8704 12.1065 65.8387C12.4075 65.7991 12.6849 65.7357 12.9384 65.6485C13.1999 65.5614 13.4455 65.4505 13.6752 65.3158C13.9129 65.1732 14.1506 64.9988 14.3883 64.7928C14.4834 64.7136 14.5864 64.6502 14.6973 64.6027C14.8082 64.5472 14.9231 64.5195 15.042 64.5195ZM23.0457 65.7912H29.4634V69H19.0287V51.6841H23.0457V65.7912ZM47.4927 60.3361C47.4927 61.588 47.2748 62.7527 46.8391 63.8302C46.4112 64.9077 45.8051 65.8466 45.0207 66.6468C44.2363 67.4392 43.2895 68.0611 42.1803 68.5127C41.079 68.9643 39.8549 69.1902 38.508 69.1902C37.161 69.1902 35.933 68.9643 34.8237 68.5127C33.7145 68.0611 32.7637 67.4392 31.9714 66.6468C31.187 65.8466 30.577 64.9077 30.1412 63.8302C29.7133 62.7527 29.4994 61.588 29.4994 60.3361C29.4994 59.0843 29.7133 57.9196 30.1412 56.842C30.577 55.7645 31.187 54.8296 31.9714 54.0373C32.7637 53.245 33.7145 52.623 34.8237 52.1714C35.933 51.7198 37.161 51.494 38.508 51.494C39.8549 51.494 41.079 51.7237 42.1803 52.1833C43.2895 52.6349 44.2363 53.2568 45.0207 54.0492C45.8051 54.8415 46.4112 55.7764 46.8391 56.8539C47.2748 57.9315 47.4927 59.0922 47.4927 60.3361ZM43.3807 60.3361C43.3807 59.4804 43.2697 58.7119 43.0479 58.0305C42.826 57.3412 42.5052 56.7588 42.0852 56.2835C41.6732 55.8081 41.1662 55.4436 40.564 55.1901C39.9618 54.9365 39.2765 54.8098 38.508 54.8098C37.7315 54.8098 37.0382 54.9365 36.4282 55.1901C35.826 55.4436 35.315 55.8081 34.895 56.2835C34.483 56.7588 34.1661 57.3412 33.9443 58.0305C33.7224 58.7119 33.6115 59.4804 33.6115 60.3361C33.6115 61.1997 33.7224 61.9762 33.9443 62.6655C34.1661 63.3469 34.483 63.9253 34.895 64.4007C35.315 64.876 35.826 65.2405 36.4282 65.494C37.0382 65.7397 37.7315 65.8625 38.508 65.8625C39.2765 65.8625 39.9618 65.7397 40.564 65.494C41.1662 65.2405 41.6732 64.876 42.0852 64.4007C42.5052 63.9253 42.826 63.3469 43.0479 62.6655C43.2697 61.9762 43.3807 61.1997 43.3807 60.3361ZM61.0484 64.5195C61.1435 64.5195 61.2386 64.5393 61.3337 64.5789C61.4287 64.6106 61.5199 64.67 61.607 64.7572L63.1996 66.4329C62.5023 67.3441 61.6268 68.0334 60.573 68.5008C59.5272 68.9604 58.2872 69.1902 56.8532 69.1902C55.5379 69.1902 54.3574 68.9683 53.3115 68.5246C52.2736 68.073 51.3902 67.455 50.6613 66.6706C49.9403 65.8783 49.3857 64.9434 48.9974 63.8658C48.6092 62.7804 48.4151 61.6038 48.4151 60.3361C48.4151 59.0447 48.6369 57.8602 49.0806 56.7826C49.5243 55.6972 50.1423 54.7622 50.9346 53.9778C51.7349 53.1935 52.6896 52.5834 53.7988 52.1476C54.908 51.7118 56.1322 51.494 57.4712 51.494C58.1209 51.494 58.7309 51.5534 59.3014 51.6722C59.8798 51.7832 60.4186 51.9416 60.9177 52.1476C61.4169 52.3457 61.8764 52.5873 62.2963 52.8726C62.7162 53.1499 63.0886 53.4589 63.4135 53.7996L62.0586 55.6179C61.9715 55.7288 61.8685 55.8318 61.7496 55.9269C61.6308 56.0141 61.4644 56.0577 61.2505 56.0577C61.1079 56.0577 60.9732 56.026 60.8464 55.9626C60.7196 55.8992 60.5849 55.8239 60.4423 55.7368C60.2997 55.6417 60.1412 55.5427 59.9669 55.4397C59.8005 55.3287 59.5985 55.2297 59.3608 55.1425C59.131 55.0475 58.8577 54.9682 58.5408 54.9048C58.2318 54.8415 57.8673 54.8098 57.4474 54.8098C56.7185 54.8098 56.0529 54.9405 55.4508 55.202C54.8486 55.4555 54.3297 55.8239 53.8939 56.3072C53.466 56.7826 53.1293 57.361 52.8837 58.0424C52.646 58.7238 52.5272 59.4883 52.5272 60.3361C52.5272 61.2235 52.646 62.0118 52.8837 62.7012C53.1293 63.3905 53.4581 63.9728 53.8701 64.4482C54.29 64.9157 54.7773 65.2722 55.3319 65.5178C55.8865 65.7634 56.4808 65.8862 57.1146 65.8862C57.4791 65.8862 57.8119 65.8704 58.1129 65.8387C58.414 65.7991 58.6913 65.7357 58.9449 65.6485C59.2063 65.5614 59.4519 65.4505 59.6817 65.3158C59.9194 65.1732 60.1571 64.9988 60.3948 64.7928C60.4899 64.7136 60.5929 64.6502 60.7038 64.6027C60.8147 64.5472 60.9296 64.5195 61.0484 64.5195ZM69.0522 58.696H69.6939C70.2882 58.696 70.716 58.5098 70.9775 58.1375L74.8756 52.4804C75.0896 52.1714 75.3312 51.9614 75.6006 51.8505C75.8779 51.7396 76.2146 51.6841 76.6108 51.6841H80.1049L74.9707 58.6842C74.7885 58.9377 74.5983 59.1477 74.4002 59.314C74.2022 59.4804 74.0001 59.6191 73.7941 59.73C74.0952 59.8409 74.3686 59.9954 74.6142 60.1935C74.8677 60.3837 75.0975 60.6412 75.3035 60.966L80.5327 69H76.9436C76.7138 69 76.5157 68.9842 76.3493 68.9525C76.1909 68.9208 76.0522 68.8732 75.9334 68.8098C75.8145 68.7465 75.7115 68.6712 75.6244 68.584C75.5372 68.489 75.454 68.382 75.3748 68.2632L71.4529 62.2377C71.3102 62.0158 71.128 61.8613 70.9062 61.7742C70.6922 61.6791 70.3991 61.6315 70.0267 61.6315H69.0522V69H65.0352V51.6841H69.0522V58.696ZM90.6315 62.4159V69H86.6145V62.4159L80.3394 51.6841H83.881C84.2296 51.6841 84.5069 51.7673 84.7129 51.9337C84.9189 52.0922 85.0853 52.2982 85.2121 52.5517L87.6603 57.5908C87.8584 57.9948 88.0406 58.3672 88.207 58.7079C88.3734 59.0486 88.52 59.3853 88.6467 59.7181C88.7656 59.3774 88.9082 59.0367 89.0746 58.696C89.241 58.3553 89.4192 57.9869 89.6094 57.5908L92.0339 52.5517C92.0814 52.4487 92.1448 52.3457 92.224 52.2427C92.3112 52.1397 92.4062 52.0486 92.5092 51.9693C92.6202 51.8822 92.743 51.8148 92.8777 51.7673C93.0203 51.7118 93.1748 51.6841 93.3412 51.6841H96.9066L90.6315 62.4159Z" fill="#341F69"/>
<path d="M99.898 38.0563C103.359 37.9894 106.722 36.8978 109.562 34.9195C112.402 32.9413 114.592 30.1653 115.854 26.9426C117.116 23.7199 117.395 20.1952 116.654 16.8142C115.913 13.4332 114.187 10.3478 111.692 7.9482C109.198 5.54858 106.048 3.94249 102.641 3.33303C99.234 2.72357 95.7227 3.13812 92.5512 4.52425C89.3797 5.91038 86.6904 8.20584 84.8235 11.1204C82.9566 14.0349 81.9959 17.4375 82.0629 20.8981L94.2107 20.6631C94.1902 19.6052 94.4839 18.5649 95.0547 17.6739C95.6254 16.783 96.4475 16.0812 97.4171 15.6575C98.3866 15.2337 99.46 15.107 100.502 15.2933C101.543 15.4796 102.506 15.9706 103.269 16.7042C104.031 17.4378 104.559 18.381 104.785 19.4146C105.012 20.4482 104.927 21.5257 104.541 22.5109C104.155 23.4961 103.486 24.3448 102.617 24.9495C101.749 25.5543 100.721 25.888 99.663 25.9085L99.898 38.0563Z" fill="#806AB6"/>
</svg>
