<svg width="53" height="53" viewBox="0 0 53 53" fill="none" xmlns="http://www.w3.org/2000/svg">
<path d="M26.5001 48.5833C14.3093 48.5699 4.43014 38.6907 4.41675 26.5V26.0583C4.65951 13.9225 14.6515 4.25757 26.7886 4.41861C38.9258 4.57965 48.6578 14.5063 48.5785 26.6443C48.4992 38.7823 38.6383 48.5809 26.5001 48.5833ZM26.4648 44.1667H26.5001C36.2537 44.1569 44.154 36.2448 44.1491 26.4912C44.1442 16.7376 36.236 8.83334 26.4824 8.83334C16.7288 8.83334 8.82063 16.7376 8.81575 26.4912C8.81087 36.2448 16.7112 44.1569 26.4648 44.1667ZM33.1251 35.3333H28.7084V17.6667H33.1251V35.3333ZM24.2917 35.3333H19.8751V17.6667H24.2917V35.3333Z" fill="#5F4F87"/>
</svg>
