<svg width="24" height="25" viewBox="0 0 24 25" fill="none" xmlns="http://www.w3.org/2000/svg">
<g clip-path="url(#clip0)">
<path d="M24 4.74688C23.117 5.15522 22.168 5.43022 21.172 5.55417C22.189 4.9198 22.97 3.91459 23.337 2.71667C22.386 3.30417 21.332 3.73126 20.21 3.96147C19.313 2.96459 18.032 2.34167 16.616 2.34167C13.437 2.34167 11.101 5.43126 11.819 8.63855C7.728 8.42501 4.1 6.38334 1.671 3.28022C0.381 5.58542 1.002 8.60105 3.194 10.1281C2.388 10.101 1.628 9.87084 0.965 9.48647C0.911 11.8625 2.546 14.0854 4.914 14.5802C4.221 14.776 3.462 14.8219 2.69 14.6677C3.316 16.7052 5.134 18.1875 7.29 18.2292C5.22 19.9198 2.612 20.675 0 20.3542C2.179 21.8094 4.768 22.6583 7.548 22.6583C16.69 22.6583 21.855 14.6156 21.543 7.40209C22.505 6.67813 23.34 5.77501 24 4.74688V4.74688Z" fill="#59BBFA"/>
</g>
<defs>
<clipPath id="clip0">
<rect width="24" height="25" fill="white"/>
</clipPath>
</defs>
</svg>
